<?xml version="1.0" standalone="no"?>
<!DOCTYPE svg PUBLIC "-//W3C//DTD SVG 20010904//EN"
 "http://www.w3.org/TR/2001/REC-SVG-20010904/DTD/svg10.dtd">
<svg version="1.0" xmlns="http://www.w3.org/2000/svg"
 width="798.000000pt" height="635.000000pt" viewBox="0 0 798.000000 635.000000"
 preserveAspectRatio="xMidYMid meet">
<metadata>
Created by potrace 1.13, written by Peter Selinger 2001-2015
</metadata>
<g transform="translate(0.000000,635.000000) scale(0.100000,-0.100000)"
fill="#000000" stroke="none">
<path d="M5145 5808 c-50 -28 -93 -70 -99 -95 -4 -16 -13 -129 -21 -253 -16
-240 -24 -326 -31 -350 -3 -8 -8 -51 -10 -95 -3 -43 -7 -81 -9 -83 -2 -2 -35
-12 -73 -22 -39 -10 -84 -26 -101 -34 -16 -9 -37 -16 -46 -16 -30 0 -17 -51
24 -91 l39 -39 83 3 84 2 4 -30 c7 -54 6 -298 -2 -395 -4 -52 -15 -138 -23
-190 -22 -125 -14 -309 15 -401 18 -54 33 -76 98 -142 42 -43 92 -86 113 -97
40 -20 148 -35 166 -23 26 18 51 84 50 129 -1 41 -5 50 -31 66 -38 23 -40 24
-97 38 -66 17 -72 41 -65 234 4 83 9 165 11 181 15 91 26 329 21 461 l-5 151
67 8 c38 4 93 6 123 5 30 0 69 2 87 5 27 5 32 11 38 44 4 22 3 59 0 84 -6 38
-13 49 -53 77 -26 18 -51 33 -57 33 -5 0 -50 -3 -99 -7 l-89 -8 7 83 c8 106 8
528 0 632 -10 118 -57 171 -119 135z"/>
<path d="M2429 5549 c-39 -42 -69 -144 -75 -254 -3 -49 -9 -91 -14 -93 -14 -5
-13 -32 1 -32 6 0 8 -8 5 -18 -3 -10 -8 -42 -11 -72 -7 -71 -32 -218 -41 -231
-3 -6 -8 -61 -10 -122 -7 -166 -23 -359 -32 -371 -10 -15 -27 -69 -43 -136 -6
-30 -15 -57 -18 -60 -4 -3 -12 -36 -18 -74 -7 -38 -15 -72 -20 -75 -4 -3 -9
-24 -10 -46 -1 -22 -4 -56 -6 -75 -3 -19 -11 -106 -18 -193 -10 -129 -10 -160
0 -166 10 -6 10 -17 2 -47 -17 -61 -14 -102 8 -114 38 -20 58 -12 79 33 38 82
47 127 58 297 3 52 8 98 10 102 3 4 9 44 14 90 9 75 32 172 65 273 36 110 54
187 60 260 10 136 22 184 39 157 3 -5 8 -93 11 -198 8 -227 7 -220 33 -364 23
-123 34 -219 36 -287 0 -24 3 -43 7 -43 3 0 11 -48 18 -107 7 -60 16 -129 20
-155 4 -26 4 -53 -1 -63 -7 -12 -3 -27 15 -53 14 -20 28 -47 32 -59 4 -16 14
-23 31 -23 17 0 24 -5 24 -20 0 -13 9 -22 25 -26 13 -3 29 -12 36 -20 20 -24
46 -16 58 19 7 17 19 44 26 60 8 15 12 34 9 41 -3 8 -1 17 4 20 5 3 7 17 5 30
-8 41 56 285 83 316 7 8 15 27 19 42 4 14 15 34 26 44 10 9 19 23 19 30 0 7
11 39 24 71 13 32 29 87 35 122 7 35 16 71 20 80 5 9 16 63 26 121 9 58 21
123 26 145 34 159 49 200 49 134 0 -19 5 -50 11 -69 6 -19 15 -80 20 -135 5
-55 11 -116 13 -135 7 -52 10 -181 7 -295 -2 -58 1 -112 8 -128 6 -16 11 -31
11 -35 0 -4 13 -16 29 -27 16 -10 28 -23 25 -27 -7 -12 43 -40 86 -48 38 -7
40 -6 51 27 8 26 8 41 -1 63 -7 16 -10 40 -6 54 4 15 0 28 -9 36 -8 7 -15 27
-15 45 0 17 -3 34 -6 37 -3 3 -7 84 -8 179 -2 121 -8 190 -19 228 -13 46 -32
169 -42 271 -1 14 -5 32 -8 40 -4 8 -6 31 -6 50 1 52 -19 360 -26 400 -9 53
-47 131 -61 126 -7 -3 -17 8 -23 25 -5 16 -16 30 -23 30 -27 3 -34 4 -53 15
-11 6 -33 10 -49 10 -24 -1 -34 -11 -65 -62 -21 -35 -44 -92 -55 -137 -10 -42
-21 -77 -25 -77 -4 0 -8 -13 -8 -30 0 -16 -5 -47 -10 -67 -13 -43 -33 -141
-34 -163 -1 -8 -8 -46 -15 -83 -8 -38 -14 -90 -14 -116 0 -27 -6 -67 -14 -89
-8 -22 -21 -87 -30 -145 -16 -110 -44 -180 -78 -198 -11 -6 -22 -9 -24 -7 -10
11 -21 215 -23 438 -1 169 -7 267 -17 315 -35 170 -43 216 -54 315 -6 58 -12
123 -14 145 -2 22 -6 56 -10 75 -3 19 -8 74 -10 122 -5 85 -13 116 -44 151
-24 27 -70 22 -103 -14z"/>
<path d="M4010 5492 c0 -4 -16 -14 -35 -21 -33 -12 -52 -39 -78 -113 -4 -11
-12 -15 -22 -12 -20 8 -19 -2 3 -34 9 -15 22 -36 28 -47 6 -10 30 -30 54 -42
24 -13 47 -27 50 -31 3 -4 33 -8 68 -9 35 -1 76 -6 92 -11 30 -11 50 0 50 26
0 11 -3 12 -14 3 -18 -15 -49 -3 -42 16 3 8 6 21 6 29 0 8 11 19 25 24 25 10
35 30 14 30 -7 0 -9 11 -6 28 3 16 -2 43 -13 67 -10 22 -17 42 -15 45 2 3 -10
12 -26 19 -16 7 -29 19 -29 27 0 13 -33 12 -77 -2 -7 -2 -13 1 -13 6 0 6 -4
10 -10 10 -5 0 -10 -4 -10 -8z"/>
<path d="M6742 5348 c-17 -13 -34 -31 -38 -40 -3 -10 -9 -18 -14 -18 -19 0
-48 -76 -54 -139 -4 -36 -11 -70 -15 -75 -5 -6 -9 -22 -9 -36 0 -54 -35 -316
-44 -327 -6 -7 -5 -14 2 -18 6 -3 8 -10 6 -14 -9 -14 -25 -134 -30 -226 -10
-166 -17 -250 -23 -265 -6 -17 -7 -23 -19 -270 -11 -221 -9 -246 24 -295 15
-22 29 -42 33 -45 14 -13 49 -92 44 -101 -4 -5 4 -9 17 -9 13 0 29 -5 35 -11
15 -15 114 -7 125 11 24 42 41 100 43 145 6 114 26 838 26 915 0 25 3 69 5 98
5 51 7 53 49 73 33 16 45 27 47 47 2 19 27 47 86 98 46 39 93 76 105 82 12 6
55 25 95 43 46 20 72 38 72 48 0 11 3 12 8 4 4 -6 20 -15 35 -18 23 -6 27 -4
27 13 0 12 9 23 20 27 14 5 19 12 15 24 -3 10 1 24 10 31 8 7 11 17 7 24 -4 6
-7 18 -8 26 -3 49 -5 52 -19 46 -9 -3 -18 1 -21 9 -4 8 -17 15 -29 15 -13 0
-39 9 -59 20 -22 14 -37 17 -41 10 -3 -5 -15 -10 -26 -10 -11 0 -22 -7 -25
-15 -4 -8 -15 -15 -25 -15 -11 0 -30 -9 -41 -20 -12 -11 -42 -30 -66 -41 -24
-12 -64 -36 -90 -54 -26 -17 -52 -30 -58 -28 -6 2 -14 -6 -17 -19 -13 -49 -22
1 -22 126 l0 132 -30 32 c-36 38 -68 41 -113 10z"/>
<path d="M4514 5313 c-22 -16 -57 -37 -78 -48 -47 -24 -94 -77 -134 -153 -44
-82 -54 -135 -42 -228 12 -91 34 -142 91 -204 22 -25 53 -58 69 -75 34 -38 88
-115 125 -180 16 -27 37 -59 47 -71 53 -60 90 -248 67 -340 -6 -21 -12 -46
-13 -54 -14 -82 -54 -133 -91 -119 -11 4 -43 17 -72 28 -74 30 -201 36 -275
13 -32 -9 -58 -22 -58 -28 0 -6 8 -22 19 -35 10 -13 16 -30 13 -37 -2 -7 4
-22 13 -32 9 -10 14 -23 10 -29 -3 -6 9 -26 28 -45 30 -30 39 -33 75 -29 37 4
47 1 84 -31 23 -20 45 -36 50 -36 4 0 8 -6 8 -14 0 -10 17 -13 78 -10 95 4 96
4 154 32 69 34 137 98 163 156 61 133 74 298 35 428 -33 110 -52 160 -70 188
-10 14 -21 36 -25 50 -11 37 -42 96 -60 113 -8 8 -29 42 -47 74 -17 32 -57 92
-88 133 -64 84 -74 106 -71 168 2 55 8 67 82 149 110 123 116 136 95 233 -14
64 -113 81 -182 33z"/>
<path d="M6145 5071 c-85 -22 -192 -106 -240 -186 -13 -24 -31 -67 -39 -97 -7
-29 -25 -80 -39 -114 -14 -33 -39 -106 -56 -162 -17 -56 -35 -110 -40 -120
-11 -21 -44 -132 -67 -227 -8 -33 -21 -69 -29 -81 -8 -12 -10 -25 -5 -30 5 -5
5 -26 0 -49 -14 -59 -11 -443 3 -485 8 -21 28 -45 55 -64 35 -25 55 -31 112
-34 38 -2 81 -1 95 2 57 14 255 221 255 266 0 6 4 10 10 10 5 0 18 10 29 21
11 12 30 27 42 33 12 6 31 23 42 38 16 22 18 35 13 81 -7 50 -10 56 -38 66
-47 17 -99 13 -135 -9 -18 -11 -33 -23 -33 -28 0 -5 -8 -17 -17 -28 -10 -10
-36 -43 -58 -71 -21 -29 -45 -53 -51 -53 -7 0 -33 -16 -58 -35 -26 -19 -50
-35 -55 -35 -12 0 -3 42 35 161 18 58 41 148 49 200 33 198 22 179 117 200 40
8 83 9 140 4 145 -15 185 -13 209 12 20 20 22 34 26 191 4 131 1 186 -11 243
-9 41 -17 107 -18 146 -2 40 -6 73 -9 73 -4 0 -23 26 -43 59 -20 32 -48 68
-61 81 -25 24 -83 33 -130 21z m60 -395 c3 -28 4 -73 1 -101 -3 -27 -5 -69 -6
-92 l0 -43 -47 0 c-27 -1 -67 -5 -91 -9 -42 -8 -43 -8 -38 18 7 43 18 85 26
96 4 6 10 22 14 37 8 33 60 124 89 156 20 21 23 22 34 6 6 -9 15 -39 18 -68z"/>
<path d="M3970 4931 c0 -5 -14 -12 -30 -16 -20 -4 -36 -17 -45 -36 -9 -16 -20
-29 -26 -29 -5 0 -9 -6 -8 -12 1 -7 0 -20 -4 -28 -7 -19 -32 -108 -51 -185 -8
-33 -22 -85 -31 -115 -9 -30 -18 -66 -20 -80 -5 -37 -25 -112 -32 -124 -4 -5
-8 -19 -9 -30 -3 -31 -84 -348 -92 -360 -3 -6 -7 -24 -8 -41 0 -16 -4 -92 -9
-167 -6 -106 -5 -141 5 -153 7 -8 10 -21 7 -29 -3 -8 -1 -31 4 -51 6 -21 7
-41 1 -48 -4 -7 -9 -36 -10 -64 -2 -52 -2 -53 27 -53 25 0 31 6 41 34 6 19 17
39 24 45 8 6 12 28 10 56 -1 24 2 47 7 51 5 3 7 14 4 25 -7 22 21 129 35 129
5 0 8 8 8 18 -1 26 27 123 38 130 5 4 10 20 11 37 1 16 15 77 32 135 17 58 35
131 41 163 6 31 16 57 21 57 5 0 8 10 8 23 -1 12 8 65 20 117 20 82 29 143 35
225 1 19 34 86 86 173 16 26 17 32 5 32 -18 0 -18 8 0 40 18 31 18 70 2 90
-29 36 -97 65 -97 41z"/>
<path d="M6233 3510 c-22 -30 -33 -56 -38 -98 -4 -31 -10 -61 -13 -67 -3 -5
-8 -48 -9 -95 -2 -47 -11 -123 -19 -170 -9 -47 -17 -92 -18 -100 -1 -9 -5 -21
-9 -27 -4 -7 -8 -34 -8 -60 -1 -26 -10 -88 -21 -138 -31 -141 -81 -433 -79
-460 6 -70 4 -89 -6 -92 -7 -3 -17 7 -23 21 -5 14 -14 26 -19 26 -5 0 -13 9
-16 21 -4 11 -28 49 -55 84 -27 35 -51 72 -54 83 -4 11 -15 27 -26 37 -11 10
-20 22 -20 27 0 5 -11 33 -24 62 -14 30 -28 71 -32 92 -12 65 -31 100 -79 142
-25 22 -50 53 -56 70 -9 25 -16 30 -56 36 -25 3 -67 6 -93 6 -48 0 -48 0 -87
-63 -36 -57 -73 -167 -73 -215 0 -11 -6 -42 -14 -68 -8 -27 -20 -77 -27 -111
-6 -35 -16 -63 -21 -63 -5 0 -7 -8 -3 -19 7 -22 -41 -214 -55 -219 -5 -2 -6
-10 -3 -17 4 -13 -10 -62 -37 -130 -14 -34 -38 -157 -45 -225 -8 -87 -32 -158
-55 -165 -10 -3 -21 -12 -24 -20 -7 -18 14 -66 25 -60 4 3 10 1 14 -5 3 -5 0
-10 -8 -10 -19 0 -29 -24 -15 -38 11 -11 18 -54 24 -151 5 -67 23 -108 66
-148 27 -25 78 -41 78 -24 0 6 6 11 13 11 21 1 75 54 87 85 11 28 17 56 41
185 5 30 13 57 18 60 17 11 23 50 23 150 1 133 34 372 85 600 33 148 33 147
67 114 26 -27 106 -139 136 -192 8 -14 23 -35 33 -46 9 -11 17 -24 17 -29 0
-5 13 -26 28 -46 32 -40 68 -102 118 -200 19 -36 43 -79 53 -96 11 -16 27 -51
36 -78 9 -26 26 -52 37 -58 11 -6 17 -17 14 -25 -3 -8 1 -14 9 -14 7 0 23 -12
34 -26 12 -15 21 -23 21 -18 0 5 5 1 11 -9 6 -9 14 -15 20 -12 5 3 7 0 4 -7
-3 -7 7 -26 21 -43 14 -16 22 -23 19 -15 -4 8 2 5 12 -6 34 -40 55 -37 91 11
17 24 32 48 32 52 0 5 10 15 21 23 44 31 51 42 44 74 -3 17 -9 49 -12 71 -3
22 -11 49 -18 60 -26 39 -49 274 -31 303 3 6 2 14 -4 17 -12 7 -7 28 23 95 11
25 19 59 18 75 -1 17 10 67 25 110 30 90 48 262 46 435 -1 58 -2 134 -2 170
-1 64 10 171 32 302 9 52 8 71 -1 82 -11 13 -9 20 8 42 12 15 21 34 21 43 0
26 -30 62 -48 59 -12 -2 -18 5 -20 22 -5 34 -40 60 -82 60 -30 0 -41 -7 -67
-40z"/>
<path d="M3188 3219 c-16 -11 -28 -25 -28 -30 0 -5 -7 -26 -16 -47 -9 -20 -16
-54 -15 -74 2 -21 -1 -38 -6 -38 -4 0 -8 -21 -8 -47 0 -27 -6 -102 -13 -168
-7 -66 -15 -145 -18 -175 -18 -180 -34 -294 -44 -304 -4 -4 -6 -23 -3 -40 3
-22 0 -38 -10 -48 -9 -9 -13 -24 -10 -36 2 -11 0 -53 -6 -93 -12 -76 -28 -300
-36 -506 -3 -68 -10 -167 -15 -221 -11 -100 -28 -281 -35 -365 -2 -26 -6 -50
-9 -55 -7 -11 10 -144 23 -172 26 -59 81 -145 93 -145 7 0 23 -4 36 -8 27 -10
79 19 114 63 27 33 93 70 127 70 35 0 154 23 166 32 6 4 20 16 32 26 23 18 38
78 22 88 -5 3 -9 14 -9 25 0 11 -7 19 -17 20 -79 4 -257 -6 -296 -17 -17 -5
-18 3 -16 133 1 76 5 161 10 188 4 28 11 183 13 345 8 415 20 603 44 644 2 4
6 45 7 90 1 44 5 88 8 96 4 8 13 65 22 125 15 102 20 145 29 280 2 28 9 119
16 203 9 119 9 156 0 168 -20 23 -119 18 -152 -7z"/>
<path d="M1132 3090 c-7 -11 -19 -20 -27 -20 -8 0 -20 -10 -26 -22 -7 -13 -18
-26 -25 -30 -6 -5 -10 -17 -7 -29 6 -21 -34 -119 -49 -119 -4 0 -8 -13 -8 -28
0 -15 -4 -32 -10 -38 -25 -25 -101 -269 -141 -452 -6 -29 -17 -59 -25 -67 -8
-7 -14 -27 -14 -43 0 -16 -9 -55 -20 -87 -11 -31 -27 -101 -36 -154 -22 -132
-68 -310 -105 -406 -16 -44 -35 -93 -41 -110 -6 -16 -17 -35 -24 -41 -8 -6
-11 -14 -8 -17 5 -5 -5 -42 -34 -127 -3 -8 -4 -18 -4 -23 1 -4 -4 -23 -13 -42
-8 -20 -19 -64 -25 -98 -7 -34 -18 -69 -25 -77 -9 -9 -15 -42 -16 -78 -1 -34
-5 -62 -10 -62 -4 0 -10 -22 -14 -50 -4 -27 -11 -52 -15 -55 -15 -9 16 -80 41
-92 24 -13 41 -11 90 10 25 10 59 57 59 82 0 7 15 59 34 116 18 57 39 133 46
169 7 36 17 69 21 74 5 6 9 20 9 32 0 33 41 207 51 218 5 6 9 19 9 30 0 19 27
119 57 206 8 25 26 97 39 160 13 63 28 126 33 140 5 14 15 57 21 95 15 85 47
216 56 224 4 3 3 -39 -1 -94 -11 -140 -14 -568 -4 -640 16 -128 22 -381 10
-476 -6 -52 -13 -121 -16 -154 -3 -33 -7 -80 -10 -105 -3 -25 -7 -54 -8 -66
-1 -11 -8 -29 -16 -38 -11 -13 -11 -20 -3 -28 7 -7 12 -21 12 -33 0 -11 10
-25 22 -30 14 -7 30 -34 47 -83 21 -57 34 -77 63 -97 19 -13 38 -21 42 -18 3
3 11 1 18 -5 20 -16 68 -3 68 18 0 10 10 20 21 23 14 4 20 11 16 20 -3 8 -1
19 4 24 15 15 19 50 24 201 3 93 9 154 19 175 28 64 65 174 82 242 9 39 20 86
25 105 11 49 49 182 56 200 3 8 7 24 8 35 11 88 63 282 88 331 8 16 29 74 47
129 18 55 36 105 40 110 3 6 15 37 25 70 11 33 24 65 30 70 7 6 10 15 8 21 -2
6 1 22 7 35 10 23 6 -201 -7 -441 -3 -47 -4 -94 -3 -105 1 -11 1 -24 2 -30 0
-5 -5 -54 -12 -109 -7 -54 -10 -132 -8 -173 5 -67 8 -77 38 -109 29 -29 41
-34 78 -34 38 0 49 5 78 37 33 36 34 39 34 122 0 48 2 100 4 116 19 130 28
353 22 525 -8 242 -12 289 -40 460 -9 52 -16 130 -16 173 0 45 -6 92 -14 112
-13 30 -20 35 -48 35 -38 0 -118 -39 -118 -57 0 -7 -4 -13 -9 -13 -5 0 -15
-17 -22 -37 -6 -21 -16 -47 -22 -58 -6 -11 -10 -32 -8 -48 1 -16 -3 -29 -12
-33 -8 -3 -18 -19 -21 -37 -3 -17 -22 -64 -41 -104 -19 -41 -35 -83 -35 -94 0
-10 -4 -27 -9 -37 -6 -9 -18 -44 -27 -77 -10 -33 -20 -64 -24 -70 -4 -5 -13
-28 -20 -50 -7 -22 -16 -44 -21 -50 -5 -5 -9 -17 -9 -27 0 -10 -4 -18 -10 -18
-5 0 -10 -6 -10 -14 0 -7 -14 -44 -31 -81 -16 -37 -28 -69 -25 -72 3 -3 -1
-18 -9 -33 -8 -16 -22 -50 -31 -77 -14 -43 -36 -73 -55 -73 -3 0 -12 64 -19
143 -9 102 -11 267 -7 587 5 416 16 598 38 626 14 18 -22 82 -57 99 -41 19
-47 19 -62 -5z"/>
<path d="M2480 2955 c8 -9 8 -15 2 -15 -6 0 -23 -4 -37 -10 -25 -9 -25 -11
-11 -32 20 -28 20 -64 1 -72 -8 -3 -12 -12 -9 -21 4 -8 2 -21 -4 -28 -16 -19
-3 -67 19 -67 14 0 19 -7 19 -30 0 -17 6 -37 13 -44 10 -12 15 -12 31 2 18 16
19 16 14 -4 -5 -21 23 -50 36 -37 11 12 6 71 -6 76 -10 4 -10 7 -1 17 10 11
14 8 22 -13 12 -30 26 -37 19 -9 -4 13 5 23 31 35 30 15 36 23 38 53 2 37 -28
84 -54 84 -7 0 -13 7 -13 16 0 10 -6 14 -15 10 -9 -3 -15 0 -15 10 0 9 -5 12
-12 8 -8 -5 -9 -2 -5 10 5 12 0 19 -17 26 -13 4 -26 18 -29 29 -3 12 -11 21
-17 21 -10 0 -10 -3 0 -15z"/>
<path d="M6995 2690 c-3 -5 -15 -10 -25 -10 -33 0 -110 -30 -137 -53 -87 -75
-283 -275 -283 -289 0 -9 -8 -23 -18 -30 -10 -7 -26 -32 -35 -55 -14 -35 -15
-55 -7 -118 5 -42 14 -84 20 -95 5 -10 7 -26 4 -34 -3 -9 -1 -16 4 -16 6 0 14
-10 18 -22 12 -42 89 -148 102 -143 7 2 18 -7 24 -21 7 -15 17 -23 25 -19 8 2
25 -6 38 -19 13 -13 29 -26 36 -28 7 -2 13 -15 14 -29 1 -21 7 -24 43 -25 32
-1 43 3 48 18 6 19 34 26 34 8 0 -6 30 -10 70 -10 53 0 72 4 76 15 6 16 -19
48 -30 38 -3 -4 -6 -1 -6 5 0 19 17 14 37 -11 10 -12 27 -22 38 -21 26 2 111
42 126 60 6 8 17 14 24 14 15 0 75 50 75 63 0 4 -4 6 -9 3 -4 -3 -16 1 -27 8
-16 12 -15 14 16 12 23 -1 34 3 32 12 -1 6 5 12 14 12 8 0 12 5 9 10 -4 6 -11
8 -16 5 -5 -4 -9 -4 -9 0 0 3 12 10 26 15 14 6 23 13 20 18 -2 4 2 32 10 62 8
30 14 70 14 88 0 34 26 101 43 113 5 4 7 46 5 95 -2 70 -9 101 -29 144 -15 30
-30 65 -33 78 -4 12 -12 22 -17 22 -5 0 -9 6 -9 13 -1 12 -69 65 -105 80 -11
5 -62 13 -114 17 -51 5 -98 13 -104 19 -14 14 -24 14 -32 1z m123 -326 c18
-12 22 -24 22 -61 0 -45 -16 -152 -28 -183 -3 -8 -6 -22 -6 -30 -1 -8 -15 -18
-31 -23 -17 -5 -50 -18 -74 -30 l-44 -21 -38 43 c-65 73 -69 125 -13 198 13
17 24 35 24 40 0 11 74 71 102 82 26 11 52 6 86 -15z"/>
<path d="M4449 2383 c-1 -5 -1 -11 0 -15 0 -3 -13 -11 -29 -17 -36 -12 -80
-57 -80 -82 0 -10 -9 -23 -20 -29 -15 -8 -20 -21 -20 -49 0 -21 -3 -41 -7 -45
-4 -3 -8 -12 -10 -19 -10 -45 -51 -150 -65 -167 -10 -11 -18 -27 -18 -35 0
-19 -30 -96 -44 -114 -6 -7 -11 -19 -11 -25 -1 -37 -61 -175 -79 -182 -8 -3
-12 -14 -9 -24 3 -10 -9 -45 -25 -77 -36 -68 -86 -177 -101 -215 -6 -16 -15
-28 -20 -28 -5 0 -9 -8 -9 -17 1 -10 -10 -43 -24 -73 -14 -30 -42 -93 -63
-140 -21 -47 -43 -92 -49 -100 -7 -8 -30 -55 -51 -103 -21 -49 -44 -91 -52
-94 -7 -3 -13 -14 -13 -24 0 -10 -13 -47 -29 -81 -35 -74 -53 -116 -77 -178
-9 -25 -23 -52 -31 -61 -12 -14 -7 -19 46 -43 34 -15 66 -23 76 -20 10 4 45
64 78 133 34 69 64 128 67 131 10 8 45 69 100 175 28 55 59 109 69 120 9 11
23 31 30 45 24 48 37 56 116 72 64 13 315 39 372 38 7 0 22 -19 34 -43 12 -23
24 -44 28 -47 10 -8 11 -70 1 -70 -13 0 -13 -67 0 -75 6 -3 10 -17 10 -31 0
-14 7 -32 15 -40 8 -9 18 -27 21 -41 4 -13 18 -36 31 -49 13 -13 33 -46 44
-72 27 -62 42 -95 52 -107 4 -5 25 -33 47 -61 22 -29 40 -56 40 -62 0 -15 37
-22 123 -22 77 0 77 0 97 33 21 33 31 64 50 157 9 47 8 56 -5 66 -12 9 -13 13
-3 17 11 4 11 6 0 6 -10 1 -10 5 2 17 9 8 16 23 17 32 2 71 7 106 15 109 13 4
8 74 -6 83 -7 4 -9 13 -6 19 4 7 -1 11 -13 11 -23 0 -53 60 -76 150 -15 57
-42 141 -81 245 -22 62 -44 150 -64 265 -7 36 -20 92 -30 125 -10 33 -21 74
-25 90 -8 39 -72 182 -97 218 -11 15 -24 43 -29 62 -5 19 -21 48 -35 64 -14
17 -23 35 -20 40 4 5 0 13 -7 18 -18 10 -37 67 -37 109 0 51 -15 78 -59 107
-43 29 -50 31 -52 20z m-69 -454 c24 -88 60 -316 67 -421 5 -77 3 -88 -11 -88
-9 0 -35 -14 -58 -30 -22 -16 -51 -30 -64 -30 -12 0 -24 -5 -26 -11 -5 -14
-108 -47 -131 -41 -14 4 -17 11 -11 36 3 17 10 36 14 41 5 6 12 39 15 75 4 36
13 74 19 85 17 29 63 145 71 178 3 16 17 52 30 80 14 28 25 55 25 59 0 9 43
107 47 108 1 0 7 -19 13 -41z"/>
<path d="M2566 2211 c-23 -25 -61 -38 -107 -36 -27 1 -37 -3 -46 -20 -12 -27
-2 -115 21 -168 30 -73 31 -128 3 -209 -14 -40 -28 -95 -32 -121 -4 -26 -14
-54 -21 -62 -8 -7 -10 -15 -5 -17 5 -2 1 -30 -8 -63 -10 -33 -25 -87 -34 -120
-8 -33 -27 -88 -41 -121 -14 -34 -31 -96 -38 -138 -6 -42 -15 -76 -19 -76 -3
0 -4 -20 -2 -44 3 -26 1 -46 -6 -50 -6 -4 -8 -19 -5 -35 4 -16 -1 -61 -10 -99
-9 -39 -16 -107 -16 -151 0 -69 4 -90 30 -144 16 -34 42 -74 57 -89 28 -26
103 -47 103 -29 0 5 13 14 29 19 16 6 41 27 57 48 16 22 52 62 81 90 30 29 54
64 58 80 3 16 10 43 16 59 6 17 18 62 27 100 9 39 19 72 22 75 3 3 12 43 19
90 7 47 16 108 21 135 29 163 52 830 30 880 -4 11 -11 28 -14 38 -3 10 -11 17
-18 16 -7 -1 -21 1 -31 6 -17 7 -16 9 5 20 16 8 27 9 38 1 12 -8 13 -7 3 3 -8
10 -9 18 -1 31 8 13 7 23 -5 41 -19 26 -21 22 -8 -14 7 -19 5 -28 -10 -40 -17
-15 -19 -15 -19 -1 0 8 -4 13 -8 10 -4 -2 -7 7 -6 21 0 13 6 28 13 33 17 10
-3 50 -24 50 -8 0 -15 5 -15 10 0 18 -66 11 -84 -9z"/>
</g>
</svg>
