<?xml version="1.0" encoding="UTF-8" standalone="no"?>
<!-- Created with Inkscape (http://www.inkscape.org/) -->

<svg
   xmlns:dc="http://purl.org/dc/elements/1.1/"
   xmlns:cc="http://creativecommons.org/ns#"
   xmlns:rdf="http://www.w3.org/1999/02/22-rdf-syntax-ns#"
   xmlns:svg="http://www.w3.org/2000/svg"
   xmlns="http://www.w3.org/2000/svg"
   xmlns:sodipodi="http://sodipodi.sourceforge.net/DTD/sodipodi-0.dtd"
   xmlns:inkscape="http://www.inkscape.org/namespaces/inkscape"
   width="900"
   height="900"
   id="svg2"
   version="1.1"
   inkscape:version="0.48.3.1 r9886"
   sodipodi:docname="logo.svg"
   inkscape:export-filename="/home/kib/Projects/sofaweb/logo.png"
   inkscape:export-xdpi="90"
   inkscape:export-ydpi="90">
  <defs
     id="defs4" />
  <sodipodi:namedview
     id="base"
     pagecolor="#ffffff"
     bordercolor="#666666"
     borderopacity="1.0"
     inkscape:pageopacity="0.0"
     inkscape:pageshadow="2"
     inkscape:zoom="0.35"
     inkscape:cx="-130.71429"
     inkscape:cy="520"
     inkscape:document-units="px"
     inkscape:current-layer="layer1"
     showgrid="false"
     inkscape:window-width="1855"
     inkscape:window-height="1056"
     inkscape:window-x="65"
     inkscape:window-y="24"
     inkscape:window-maximized="1" />
  <metadata
     id="metadata7">
    <rdf:RDF>
      <cc:Work
         rdf:about="">
        <dc:format>image/svg+xml</dc:format>
        <dc:type
           rdf:resource="http://purl.org/dc/dcmitype/StillImage" />
        <dc:title></dc:title>
      </cc:Work>
    </rdf:RDF>
  </metadata>
  <g
     transform="translate(0,-152.36218)"
     id="g3796"
     inkscape:groupmode="layer"
     inkscape:label="base"
     sodipodi:insensitive="true"
     style="display:inline">
    <text
       transform="scale(1.0558293,0.94712278)"
       sodipodi:linespacing="125%"
       id="text3798"
       y="972.84735"
       x="77.8619"
       style="font-size:1193.79760742px;font-style:normal;font-variant:normal;font-weight:bold;font-stretch:normal;line-height:125%;letter-spacing:0px;word-spacing:0px;fill:#660000;fill-opacity:1;stroke:none;font-family:Tlwg Typo;-inkscape-font-specification:Sans Bold"
       xml:space="preserve"><tspan
         y="972.84735"
         x="77.8619"
         id="tspan3800"
         sodipodi:role="line">S</tspan></text>
    <path
       style="fill:#ff0000;fill-opacity:0"
       inkscape:connector-curvature="0"
       id="path3802"
       d="m 361.2252,848.78104 c -48.66169,-3.82369 -93.92013,-14.80283 -140.92835,-34.18746 l -20.9142,-8.62431 -8.76275,8.30517 c -21.1348,20.03114 -47.39039,24.14063 -72.30803,11.31757 -11.03271,-5.67763 -15.19239,-10.1386 -22.161258,-23.7664 l -8.579183,-16.77686 0.121032,-63.05757 c 0.102858,-53.58854 0.870046,-64.75803 5.108967,-74.38157 C 103.12973,624.16147 120.56121,613.6181 149,613.6181 c 32.45126,0 51.02448,14.69731 61.7782,48.8862 9.60067,30.52303 42.62351,53.0758 100.21163,68.43903 24.84413,6.62785 33.50029,7.48742 76.5816,7.60471 63.83368,0.17371 99.02814,-8.3074 134.95868,-32.52231 27.33512,-18.42215 37.47926,-39.72883 31.71392,-66.61169 -7.80174,-36.37834 -50.3576,-58.06277 -140.95832,-71.82566 -88.85706,-13.498 -152.5574,-29.66271 -191.42857,-48.57725 C 146.01596,482.1071 104.5718,413.19124 114.38209,340.29507 c 6.94664,-51.61758 33.86584,-91.29198 85.74832,-126.3787 56.00827,-37.87687 117.32315,-52.97804 202.43805,-49.8582 56.0014,2.0527 97.45788,11.43565 134.8826,30.52832 l 11.04403,5.63424 9.19917,-14.33569 c 12.42874,-19.3685 21.56411,-23.72168 46.09748,-21.96633 22.06817,1.57897 34.22477,8.14254 45.46592,24.54791 l 6.8852,10.04831 0,84.49506 c 0,78.79854 -0.38526,85.26195 -5.71429,95.87028 -8.53866,16.99761 -26.11531,27.97915 -47.2266,29.5062 -31.41848,2.27261 -56.1118,-13.53493 -62.68743,-40.12963 -1.6564,-6.69921 -4.31763,-16.94863 -5.9138,-22.7765 -12.88048,-47.02801 -95.38534,-80.58314 -175.03872,-71.1891 -74.55087,8.79227 -124.97199,48.41164 -117.89933,92.64167 3.8783,24.25356 21.52412,45.83395 46.08651,56.36262 17.25747,7.39741 62.24487,18.00342 126.96509,29.93265 101.82894,18.76912 156.9692,36.07855 193.10751,60.61963 34.48457,23.41803 61.63009,60.31757 71.08909,96.63309 5.54188,21.27677 5.60988,66.41374 0.13114,87.00254 -18.30946,68.805 -85.91872,122.06877 -181.47054,142.96569 -37.81626,8.27028 -93.68323,11.68425 -136.34623,8.33191 l -6e-5,0 z" />
    <path
       inkscape:connector-curvature="0"
       id="path3804"
       d="m 359.81524,848.72024 c -49.09577,-3.8006 -112.50001,-19.91931 -146.59193,-37.26686 l -10.63383,-5.41097 -14.82762,11.2226 c -19.02458,14.39917 -34.40016,18.4418 -54.08464,14.22023 -20.10175,-4.31103 -35.503855,-18.38383 -41.232309,-37.67363 -6.059737,-20.40534 -6.108438,-123.47237 -0.06795,-143.81288 7.173075,-24.15438 26.127879,-36.48009 55.765899,-36.26283 33.09835,0.24257 48.95861,12.26543 61.99135,46.99231 12.61011,33.60077 43.26874,55.06114 100.48772,70.33923 24.2669,6.47951 33.26393,7.36686 76.09236,7.50471 57.68425,0.18572 85.37162,-5.33911 121.84054,-24.31234 41.98451,-21.84274 57.3076,-52.04877 42.70977,-84.19274 C 537.04346,598.75247 502.41086,582.7215 418.84851,568.77335 312.39934,551.00498 262.55827,538.50881 221.28874,519.24113 171.50681,495.99918 130.66517,449.40627 118.23198,401.67203 c -5.6079,-21.53019 -5.6079,-61.08951 0,-82.61969 13.27985,-50.98482 55.71278,-95.83597 118.90654,-125.68295 49.83749,-23.5387 96.60369,-31.8106 165.29005,-29.23613 51.55809,1.93248 83.7562,8.33511 118.19557,23.50334 12.77815,5.62792 24.6564,10.86055 26.39609,11.62807 1.73968,0.76752 4.71863,-2.3599 6.61983,-6.94982 1.9012,-4.58993 7.94208,-12.69269 13.42417,-18.00614 9.58657,-9.29167 10.81543,-9.66081 32.16026,-9.66081 19.55365,0 23.63871,0.95684 34.35131,8.04611 21.87874,14.47867 23.00346,19.90495 23.07574,111.33137 0.0672,84.95117 -0.92151,91.99478 -15.07363,107.38901 -16.28688,17.7164 -50.26065,22.84135 -73.52088,11.09065 -14.36094,-7.25493 -24.27263,-20.31062 -28.52594,-37.5744 -6.8732,-27.89766 -9.10926,-32.99221 -19.823,-45.16365 -13.86975,-15.75686 -43.43798,-31.75616 -73.56386,-39.8052 -29.59532,-7.90728 -87.8925,-8.64159 -115.14423,-1.45035 -39.95941,10.54457 -71.43302,30.88619 -83.06405,53.68488 -7.53138,14.76272 -7.33916,39.72062 0.4295,55.76854 15.34606,31.70072 45.61124,43.09134 181.20598,68.19878 122.34586,22.65423 179.15771,46.86803 216.97794,92.47829 52.73046,63.59157 50.27906,156.63791 -5.72037,217.12397 -56.13734,60.63505 -162.75709,92.10885 -281.01376,82.95434 l 0,0 z"
       style="opacity:0;fill:#ff0000;fill-opacity:0" />
  </g>
  <g
     inkscape:label="Layer 1"
     inkscape:groupmode="layer"
     id="layer1"
     transform="translate(0,-152.36218)"
     style="display:none">
    <text
       xml:space="preserve"
       style="font-size:1193.79760742px;font-style:normal;font-variant:normal;font-weight:bold;font-stretch:normal;line-height:125%;letter-spacing:0px;word-spacing:0px;fill:#f0000f;fill-opacity:0.94117647;stroke:none;font-family:Tlwg Typo;-inkscape-font-specification:Sans Bold"
       x="-794.14044"
       y="972.84735"
       id="text3008"
       sodipodi:linespacing="125%"
       transform="scale(-1.0558293,0.94712279)"><tspan
         sodipodi:role="line"
         id="tspan3010"
         x="-794.14044"
         y="972.84735">S</tspan></text>
    <path
       d="m 361.2252,848.78104 c -48.66169,-3.82369 -93.92013,-14.80283 -140.92835,-34.18746 l -20.9142,-8.62431 -8.76275,8.30517 c -21.1348,20.03114 -47.39039,24.14063 -72.30803,11.31757 -11.03271,-5.67763 -15.19239,-10.1386 -22.161258,-23.7664 l -8.579183,-16.77686 0.121032,-63.05757 c 0.102858,-53.58854 0.870046,-64.75803 5.108967,-74.38157 C 103.12973,624.16147 120.56121,613.6181 149,613.6181 c 32.45126,0 51.02448,14.69731 61.7782,48.8862 9.60067,30.52303 42.62351,53.0758 100.21163,68.43903 24.84413,6.62785 33.50029,7.48742 76.5816,7.60471 63.83368,0.17371 99.02814,-8.3074 134.95868,-32.52231 27.33512,-18.42215 37.47926,-39.72883 31.71392,-66.61169 -7.80174,-36.37834 -50.3576,-58.06277 -140.95832,-71.82566 -88.85706,-13.498 -152.5574,-29.66271 -191.42857,-48.57725 C 146.01596,482.1071 104.5718,413.19124 114.38209,340.29507 c 6.94664,-51.61758 33.86584,-91.29198 85.74832,-126.3787 56.00827,-37.87687 117.32315,-52.97804 202.43805,-49.8582 56.0014,2.0527 97.45788,11.43565 134.8826,30.52832 l 11.04403,5.63424 9.19917,-14.33569 c 12.42874,-19.3685 21.56411,-23.72168 46.09748,-21.96633 22.06817,1.57897 34.22477,8.14254 45.46592,24.54791 l 6.8852,10.04831 0,84.49506 c 0,78.79854 -0.38526,85.26195 -5.71429,95.87028 -8.53866,16.99761 -26.11531,27.97915 -47.2266,29.5062 -31.41848,2.27261 -56.1118,-13.53493 -62.68743,-40.12963 -1.6564,-6.69921 -4.31763,-16.94863 -5.9138,-22.7765 -12.88048,-47.02801 -95.38534,-80.58314 -175.03872,-71.1891 -74.55087,8.79227 -124.97199,48.41164 -117.89933,92.64167 3.8783,24.25356 21.52412,45.83395 46.08651,56.36262 17.25747,7.39741 62.24487,18.00342 126.96509,29.93265 101.82894,18.76912 156.9692,36.07855 193.10751,60.61963 34.48457,23.41803 61.63009,60.31757 71.08909,96.63309 5.54188,21.27677 5.60988,66.41374 0.13114,87.00254 -18.30946,68.805 -85.91872,122.06877 -181.47054,142.96569 -37.81626,8.27028 -93.68323,11.68425 -136.34623,8.33191 l -6e-5,0 z"
       id="path3012"
       inkscape:connector-curvature="0"
       style="fill:#ff0000;fill-opacity:0" />
    <path
       style="opacity:0;fill:#ff0000;fill-opacity:0"
       d="m 359.81524,848.72024 c -49.09577,-3.8006 -112.50001,-19.91931 -146.59193,-37.26686 l -10.63383,-5.41097 -14.82762,11.2226 c -19.02458,14.39917 -34.40016,18.4418 -54.08464,14.22023 -20.10175,-4.31103 -35.503855,-18.38383 -41.232309,-37.67363 -6.059737,-20.40534 -6.108438,-123.47237 -0.06795,-143.81288 7.173075,-24.15438 26.127879,-36.48009 55.765899,-36.26283 33.09835,0.24257 48.95861,12.26543 61.99135,46.99231 12.61011,33.60077 43.26874,55.06114 100.48772,70.33923 24.2669,6.47951 33.26393,7.36686 76.09236,7.50471 57.68425,0.18572 85.37162,-5.33911 121.84054,-24.31234 41.98451,-21.84274 57.3076,-52.04877 42.70977,-84.19274 C 537.04346,598.75247 502.41086,582.7215 418.84851,568.77335 312.39934,551.00498 262.55827,538.50881 221.28874,519.24113 171.50681,495.99918 130.66517,449.40627 118.23198,401.67203 c -5.6079,-21.53019 -5.6079,-61.08951 0,-82.61969 13.27985,-50.98482 55.71278,-95.83597 118.90654,-125.68295 49.83749,-23.5387 96.60369,-31.8106 165.29005,-29.23613 51.55809,1.93248 83.7562,8.33511 118.19557,23.50334 12.77815,5.62792 24.6564,10.86055 26.39609,11.62807 1.73968,0.76752 4.71863,-2.3599 6.61983,-6.94982 1.9012,-4.58993 7.94208,-12.69269 13.42417,-18.00614 9.58657,-9.29167 10.81543,-9.66081 32.16026,-9.66081 19.55365,0 23.63871,0.95684 34.35131,8.04611 21.87874,14.47867 23.00346,19.90495 23.07574,111.33137 0.0672,84.95117 -0.92151,91.99478 -15.07363,107.38901 -16.28688,17.7164 -50.26065,22.84135 -73.52088,11.09065 -14.36094,-7.25493 -24.27263,-20.31062 -28.52594,-37.5744 -6.8732,-27.89766 -9.10926,-32.99221 -19.823,-45.16365 -13.86975,-15.75686 -43.43798,-31.75616 -73.56386,-39.8052 -29.59532,-7.90728 -87.8925,-8.64159 -115.14423,-1.45035 -39.95941,10.54457 -71.43302,30.88619 -83.06405,53.68488 -7.53138,14.76272 -7.33916,39.72062 0.4295,55.76854 15.34606,31.70072 45.61124,43.09134 181.20598,68.19878 122.34586,22.65423 179.15771,46.86803 216.97794,92.47829 52.73046,63.59157 50.27906,156.63791 -5.72037,217.12397 -56.13734,60.63505 -162.75709,92.10885 -281.01376,82.95434 l 0,0 z"
       id="path3782"
       inkscape:connector-curvature="0" />
  </g>
</svg>
